<svg width="261" height="261" viewBox="0 0 261 261" fill="none" xmlns="http://www.w3.org/2000/svg">
<g filter="url(#filter0_d_729_39)">
<rect x="40.724" y="36.0598" width="180" height="180" rx="32" fill="white"/>
<rect x="41.224" y="36.5598" width="179" height="179" rx="31.5" stroke="white"/>
</g>
<path d="M85.1889 139.307C84.0099 135.014 83.4097 130.554 83.4097 126.062C83.4097 105.558 96.2873 86.8098 115.456 79.4165L117.97 85.9211C101.469 92.2865 90.3871 108.417 90.3871 126.062C90.3871 129.933 90.9015 133.766 91.9144 137.46L85.1889 139.307Z" fill="#69D3A7"/>
<path d="M171.849 106.254C164.389 91.9333 149.705 83.0356 133.538 83.0356C127.809 83.0356 122.241 84.1384 117 86.3066L114.326 79.8662C120.419 77.3447 126.882 76.0598 133.538 76.0598C152.321 76.0598 169.373 86.3923 178.038 103.031L171.849 106.254Z" fill="url(#paint0_linear_729_39)"/>
<path d="M118.57 115.746C122.616 115.746 125.912 117.904 127.605 121.667L127.739 121.962L134.534 119.654L134.39 119.306C131.758 112.898 125.697 108.915 118.57 108.915C113.559 108.915 109.487 110.521 106.121 113.819C102.777 117.095 101.084 121.218 101.084 126.073C101.084 130.886 102.777 134.987 106.121 138.263C109.487 141.561 113.559 143.167 118.57 143.167C125.697 143.167 131.758 139.184 134.39 132.781L134.534 132.433L127.728 130.12L127.6 130.426C126.083 134.125 122.707 136.336 118.57 136.336C115.751 136.336 113.372 135.351 111.485 133.413C109.578 131.448 108.613 128.98 108.613 126.079C108.613 123.155 109.556 120.736 111.485 118.68C113.366 116.731 115.751 115.746 118.57 115.746Z" fill="#1B1E2E"/>
<path d="M161.131 109.547L151.447 134.05L141.699 109.547H133.725L147.396 142.991L137.669 166.579L144.641 167.965L168.666 109.547H161.131Z" fill="#1B1E2E"/>
<path d="M138.917 163.538L137.218 167.649C136.88 168.463 136.109 169.014 135.24 169.052C134.667 169.073 134.088 169.089 133.504 169.089C113.51 169.079 95.8199 154.983 91.4363 135.56L84.6304 137.096C87.0901 147.991 93.2637 157.879 102.015 164.946C110.868 172.093 122.02 176.038 133.429 176.06C133.445 176.06 133.531 176.06 133.531 176.06C134.201 176.06 134.865 176.044 135.53 176.017C139.11 175.867 142.309 173.624 143.675 170.299L145.894 164.924L138.917 163.538Z" fill="url(#paint1_linear_729_39)"/>
<defs>
<filter id="filter0_d_729_39" x="0.723999" y="0.0598145" width="260" height="260" filterUnits="userSpaceOnUse" color-interpolation-filters="sRGB">
<feFlood flood-opacity="0" result="BackgroundImageFix"/>
<feColorMatrix in="SourceAlpha" type="matrix" values="0 0 0 0 0 0 0 0 0 0 0 0 0 0 0 0 0 0 127 0" result="hardAlpha"/>
<feOffset dy="4"/>
<feGaussianBlur stdDeviation="20"/>
<feComposite in2="hardAlpha" operator="out"/>
<feColorMatrix type="matrix" values="0 0 0 0 0.0367917 0 0 0 0 0.0348958 0 0 0 0 0.0484375 0 0 0 0.1 0"/>
<feBlend mode="normal" in2="BackgroundImageFix" result="effect1_dropShadow_729_39"/>
<feBlend mode="normal" in="SourceGraphic" in2="effect1_dropShadow_729_39" result="shape"/>
</filter>
<linearGradient id="paint0_linear_729_39" x1="128.322" y1="72.8319" x2="166.373" y2="113.502" gradientUnits="userSpaceOnUse">
<stop offset="0.0939" stop-color="#58D09E"/>
<stop offset="0.9883" stop-color="#58D09E" stop-opacity="0"/>
</linearGradient>
<linearGradient id="paint1_linear_729_39" x1="82.8755" y1="148.813" x2="155.572" y2="168.162" gradientUnits="userSpaceOnUse">
<stop offset="0.0774" stop-color="#58D09E"/>
<stop offset="0.7617" stop-color="#1B1E2E"/>
</linearGradient>
</defs>
</svg>
